<?xml version="1.0" encoding="UTF-8" standalone="no"?>
<!-- Created with Inkscape (http://www.inkscape.org/) -->

<svg
   xmlns:dc="http://purl.org/dc/elements/1.1/"
   xmlns:cc="http://creativecommons.org/ns#"
   xmlns:rdf="http://www.w3.org/1999/02/22-rdf-syntax-ns#"
   xmlns:svg="http://www.w3.org/2000/svg"
   xmlns="http://www.w3.org/2000/svg"
   xmlns:xlink="http://www.w3.org/1999/xlink"
   xmlns:sodipodi="http://sodipodi.sourceforge.net/DTD/sodipodi-0.dtd"
   xmlns:inkscape="http://www.inkscape.org/namespaces/inkscape"
   width="750"
   height="750"
   id="svg2"
   sodipodi:version="0.32"
   inkscape:version="0.92.2 (5c3e80d, 2017-08-06)"
   sodipodi:docname="tegs.svg"
   inkscape:output_extension="org.inkscape.output.svg.inkscape"
   version="1.0"
   inkscape:export-filename="C:\Users\Jon\Documents\Code\TEGS (Old)\junk\icons\tegs\tegs-1024.png"
   inkscape:export-xdpi="131.07201"
   inkscape:export-ydpi="131.07201">
  <defs
     id="defs4" />
  <sodipodi:namedview
     id="base"
     pagecolor="#ffffff"
     bordercolor="#666666"
     borderopacity="1.0"
     gridtolerance="10000"
     guidetolerance="10"
     objecttolerance="10"
     inkscape:pageopacity="0.0"
     inkscape:pageshadow="2"
     inkscape:zoom="1"
     inkscape:cx="212.40382"
     inkscape:cy="356.31496"
     inkscape:document-units="px"
     inkscape:current-layer="g10207"
     inkscape:window-width="1680"
     inkscape:window-height="945"
     inkscape:window-x="0"
     inkscape:window-y="25"
     width="750px"
     height="750px"
     showgrid="false"
     inkscape:window-maximized="0" />
  <metadata
     id="metadata7">
    <rdf:RDF>
      <cc:Work
         rdf:about="">
        <dc:format>image/svg+xml</dc:format>
        <dc:type
           rdf:resource="http://purl.org/dc/dcmitype/StillImage" />
      </cc:Work>
    </rdf:RDF>
  </metadata>
  <g
     inkscape:label="Layer 1"
     inkscape:groupmode="layer"
     id="layer1"
     transform="translate(137,21.214798)">
    <image
       sodipodi:absref="C:\Users\Jon\Documents\Code\TEGS (Old)\junk\icons\tegs\214236217_43f0062862_o.jpg"
       xlink:href="214236217_43f0062862_o.jpg"
       style="display:none"
       width="1024"
       height="1038"
       id="image2329"
       x="-137"
       y="-21.214798" />
    <g
       id="g10207"
       inkscape:export-filename="/home/jon/Active/Code/TEGS/junk/icons/tegs/tegs-14.png"
       inkscape:export-xdpi="1.7050375"
       inkscape:export-ydpi="1.7050375"
       transform="translate(-134.10012,19.443353)">
      <path
         sodipodi:nodetypes="cccccccssc"
         id="path2332"
         d="m 156.66313,352.87469 c 14.39611,163.97436 55.82916,282.30871 177.96969,288.81046 87.0713,-2.42707 170.55057,-25.31507 224.80381,-252.90429 91.01345,-26.67117 157.96631,-63.47312 170.164,-123.32988 -2.08343,-53.20733 -50.49938,-71.66528 -135.81897,-62.4455 l -465.219,-71.81233 c -48.204233,4.59216 -93.627966,-3.27046 -113.96305,53.07868 0.733515,44.5408 22.986886,79.9816 63.164664,96.67373 17.025435,7.07332 35.171706,22.69029 49.850836,37.72158 14.67912,15.03129 25.89113,29.47691 29.04802,34.20755 z"
         style="fill:#f7e9c3;fill-opacity:1;fill-rule:evenodd;stroke:#e5c9a6;stroke-width:18.75;stroke-linecap:butt;stroke-linejoin:round;stroke-miterlimit:4;stroke-dasharray:none;stroke-opacity:1"
         inkscape:connector-curvature="0" />
      <path
         sodipodi:nodetypes="cssscc"
         id="path10172"
         d="m 288.48217,245.92617 c 14.93141,3.86892 -49.3068,84.23489 -32.18631,146.27143 25.85244,93.67698 63.28525,215.88454 90.72473,220.4658 30.81182,5.1443 99.36169,-127.87036 129.19456,-214.58265 C 497.61094,335.8917 447.904,260.47069 442.48965,243.71023 Z"
         style="fill:#fdf2e3;fill-opacity:1;fill-rule:evenodd;stroke:#fdf3e3;stroke-width:6.948;stroke-linecap:butt;stroke-linejoin:round;stroke-miterlimit:4;stroke-dasharray:none;stroke-opacity:1"
         inkscape:connector-curvature="0" />
      <path
         sodipodi:nodetypes="ccccccscccccc"
         id="path2334"
         d="m 317.33565,604.35949 c 4.21985,-5.51283 8.43971,-11.02566 12.65956,-16.53849 0.25121,3.47454 0.32263,6.96185 0.68471,10.42822 2.577,4.63867 5.15405,9.2773 7.73109,13.91595 3.64265,0.78057 7.2853,1.56114 10.92796,2.34171 l 21.66231,-18.12859 c -2.01698,6.30305 -5.00315,11.95616 -6.59068,18.36942 -2.12947,8.60259 -0.20942,16.48177 -0.20942,16.48177 -3.6829,-0.8662 -8.64906,-3.1483 -10.99175,-5.62012 -2.10738,-4.31863 -11.63096,-0.67686 -14.19118,0.64655 -3.73985,1.85065 -7.94752,3.9905 -12.22662,2.75074 l 5.02383,-4.83608 c -0.97633,-7.82774 -9.4075,-14.18636 -14.47981,-19.81108 z"
         style="fill:#000000;fill-opacity:1;fill-rule:evenodd;stroke:#000000;stroke-width:4.87855482;stroke-linecap:butt;stroke-linejoin:miter;stroke-miterlimit:4;stroke-dasharray:none;stroke-opacity:1"
         inkscape:connector-curvature="0" />
      <path
         sodipodi:nodetypes="cssss"
         id="path3317"
         d="m 268.88679,319.5653 c 16.2261,-0.49747 20.49311,15.81645 16.23504,29.73809 -3.06762,10.0295 -15.17027,21.91265 -23.57199,19.2234 -14.77443,-4.72905 -15.64161,-15.08548 -15.71084,-23.50504 -0.10336,-12.57166 8.56885,-25.01255 23.04779,-25.45645 z"
         style="fill:#000000;fill-opacity:1;fill-rule:evenodd;stroke:#000000;stroke-width:6.25;stroke-linecap:butt;stroke-linejoin:round;stroke-miterlimit:4;stroke-dasharray:none;stroke-opacity:1"
         inkscape:connector-curvature="0" />
      <path
         sodipodi:nodetypes="cssss"
         id="path3319"
         d="m 474.92292,330.435 c 6.69766,0.50511 18.01878,5.38809 19.61488,22.07782 2.00141,20.92791 -8.69515,24.05555 -17.06868,25.13434 -10.20718,1.31502 -18.81032,-8.92837 -20.20846,-22.75735 -1.20552,-11.92379 3.43199,-25.52798 17.66226,-24.45481 z"
         style="fill:#000000;fill-opacity:1;fill-rule:evenodd;stroke:#000000;stroke-width:6.25;stroke-linecap:butt;stroke-linejoin:round;stroke-miterlimit:4;stroke-dasharray:none;stroke-opacity:1"
         inkscape:connector-curvature="0" />
      <ellipse
         transform="matrix(0.8264813,0,0,0.7782704,42.562699,-91.058633)"
         id="path7197"
         style="fill:#ffffff;fill-opacity:1;stroke:#ffffff;stroke-width:7.79288483;stroke-linejoin:round;stroke-miterlimit:4;stroke-dasharray:none;stroke-opacity:1"
         cx="271.04608"
         cy="554.12256"
         rx="3.732132"
         ry="4.6651649" />
      <ellipse
         transform="matrix(0.9105857,0,0,0.8949837,-15.291959,-158.40863)"
         id="path7199"
         style="fill:#ffffff;fill-opacity:1;stroke:#ffffff;stroke-width:6.92328215;stroke-linejoin:round;stroke-miterlimit:4;stroke-dasharray:none;stroke-opacity:1"
         cx="542.09216"
         cy="571.15039"
         rx="5.1316814"
         ry="5.8314562" />
      <path
         sodipodi:nodetypes="ccscc"
         id="path10183"
         d="m 47.282335,188.46224 c -1.929085,-14.95039 95.489625,20.25538 95.489625,20.25538 0,0 40.26962,68.96473 17.36176,64.62429 -11.45393,-2.17022 -36.77315,-30.2625 -58.50549,-47.14198 C 79.895903,209.32045 48.246878,195.93744 47.282335,188.46224 Z"
         style="fill:#fdf2e3;fill-opacity:1;fill-rule:evenodd;stroke:#fdf3e3;stroke-width:6.25;stroke-linecap:butt;stroke-linejoin:round;stroke-miterlimit:4;stroke-dasharray:none;stroke-opacity:1"
         inkscape:connector-curvature="0" />
      <path
         sodipodi:nodetypes="ccscc"
         id="path10185"
         d="m 698.05965,256.93817 c 5.59112,-17.60534 -96.70732,-2.42598 -96.70732,-2.42598 0,0 -55.89774,72.33567 -32.82754,73.54756 11.53511,0.60593 42.86094,-26.33688 67.93963,-40.68119 25.07867,-14.34429 58.79967,-21.63771 61.59523,-30.44039 z"
         style="fill:#fdf2e3;fill-opacity:1;fill-rule:evenodd;stroke:#fdf3e3;stroke-width:6.25;stroke-linecap:butt;stroke-linejoin:round;stroke-miterlimit:4;stroke-dasharray:none;stroke-opacity:1"
         inkscape:connector-curvature="0" />
      <path
         sodipodi:nodetypes="cscsscscssss"
         id="path8172"
         d="m 338.1575,297.83171 c 29.36782,-4.38453 53.83243,-37.9575 103.97908,-27.89683 72.52784,14.5509 123.11388,22.92725 150.8965,-46.91739 32.85594,-4.52081 93.17678,2.86745 49.7254,-53.80612 C 628.4197,150.50933 578.7017,144.63681 566.40429,112.6982 548.68049,66.666253 499.15966,5.099459 412.97172,44.224166 312.1402,8.465256 196.94854,33.935075 173.31259,80.997254 c -15.54151,30.945106 -24.0205,40.736766 -54.8164,73.315146 -36.914653,4.22425 -68.260764,27.53599 -11.12157,87.72565 21.30763,22.44517 46.59943,-6.72136 72.27815,21.55665 31.64973,34.85343 45.39668,21.90797 81.15442,26.62879 35.8594,4.73425 38.77269,13.36775 77.35031,7.60822 z"
         style="fill:#ffffff;fill-opacity:1;fill-rule:evenodd;stroke:#808080;stroke-width:19.51421928;stroke-linecap:butt;stroke-linejoin:bevel;stroke-miterlimit:4;stroke-dasharray:none;stroke-opacity:1;marker-start:none"
         inkscape:connector-curvature="0" />
    </g>
  </g>
</svg>
